HIERARCHY
ROOT Hips
{
	OFFSET 0.000000 121.760803 0.000000
	CHANNELS 6 Xposition Yposition Zposition Xrotation Yrotation Zrotation 
	JOINT Spine
	{
		OFFSET 0.072000 7.257294 -0.789700
		CHANNELS 3 Xrotation Yrotation Zrotation
		JOINT Spine1
		{
			OFFSET 0.000000 12.508769 -0.658067
			CHANNELS 3 Xrotation Yrotation Zrotation
			JOINT Spine1_split
			{
				OFFSET 0.000000 12.508769 -0.658067
				CHANNELS 3 Xrotation Yrotation Zrotation
				JOINT Spine2
				{
					OFFSET 0.000000 12.508769 -0.658067
					CHANNELS 3 Xrotation Yrotation Zrotation
					JOINT Neck
					{
						OFFSET 0.000000 14.033295 7.520400
						CHANNELS 3 Xrotation Yrotation Zrotation
						JOINT Head
						{
							OFFSET 0.000000 8.198502 5.703100
							CHANNELS 3 Xrotation Yrotation Zrotation
							JOINT HeadTop_End
							{
								OFFSET 0.000000 17.760803 13.332701
								CHANNELS 3 Xrotation Yrotation Zrotation
								End Site
								{
									OFFSET 0.000000 0.000000 0.000000
								}
							}
						}
					}
					JOINT LeftShoulder
					{
						OFFSET 6.292450 5.785301 -0.669000
						CHANNELS 3 Xrotation Yrotation Zrotation
						JOINT LeftShoulder_split
						{
							OFFSET 6.292450 5.785301 -0.669000
							CHANNELS 3 Xrotation Yrotation Zrotation
							JOINT LeftArm
							{
								OFFSET 13.907140 -6.093903 1.965100
								CHANNELS 3 Xrotation Yrotation Zrotation
								JOINT LeftForeArm
								{
									OFFSET 34.140198 0.000000 0.000000
									CHANNELS 3 Xrotation Yrotation Zrotation
									JOINT LeftHand
									{
										OFFSET 40.960209 0.000000 0.000000
										CHANNELS 3 Xrotation Yrotation Zrotation
										JOINT LeftHandThumb1
										{
											OFFSET 10.006996 -7.170425 9.573125
											CHANNELS 3 Xrotation Yrotation Zrotation
											JOINT LeftHandThumb2
											{
												OFFSET 1.835007 -1.059448 1.059443
												CHANNELS 3 Xrotation Yrotation Zrotation
												JOINT LeftHandThumb3
												{
													OFFSET 2.112267 -1.219513 1.219518
													CHANNELS 3 Xrotation Yrotation Zrotation
													JOINT LeftHandThumb4
													{
														OFFSET 4.843811 -2.796570 2.796576
														CHANNELS 3 Xrotation Yrotation Zrotation
														End Site
														{
															OFFSET 0.000000 0.000000 0.000000
														}
													}
												}
											}
										}
										JOINT LeftHandIndex1
										{
											OFFSET 18.389847 -0.922348 4.596882
											CHANNELS 3 Xrotation Yrotation Zrotation
											JOINT LeftHandIndex2
											{
												OFFSET 4.711273 0.000000 0.000000
												CHANNELS 3 Xrotation Yrotation Zrotation
												JOINT LeftHandIndex3
												{
													OFFSET 2.886131 0.000000 0.000000
													CHANNELS 3 Xrotation Yrotation Zrotation
													JOINT LeftHandIndex4
													{
														OFFSET 6.145912 0.000000 0.000000
														CHANNELS 3 Xrotation Yrotation Zrotation
														End Site
														{
															OFFSET 0.000000 0.000000 0.000000
														}
													}
												}
											}
										}
										JOINT LeftHandMiddle1
										{
											OFFSET 18.013008 0.000000 0.000000
											CHANNELS 3 Xrotation Yrotation Zrotation
											JOINT LeftHandMiddle2
											{
												OFFSET 4.946693 0.000000 0.000000
												CHANNELS 3 Xrotation Yrotation Zrotation
												JOINT LeftHandMiddle3
												{
													OFFSET 3.342232 0.000000 0.000000
													CHANNELS 3 Xrotation Yrotation Zrotation
													JOINT LeftHandMiddle4
													{
														OFFSET 4.461754 0.000000 0.000000
														CHANNELS 3 Xrotation Yrotation Zrotation
														End Site
														{
															OFFSET 0.000000 0.000000 0.000000
														}
													}
												}
											}
										}
										JOINT LeftHandRing1
										{
											OFFSET 15.849892 -0.102921 -4.126150
											CHANNELS 3 Xrotation Yrotation Zrotation
											JOINT LeftHandRing2
											{
												OFFSET 3.527054 0.000000 0.000000
												CHANNELS 3 Xrotation Yrotation Zrotation
												JOINT LeftHandRing3
												{
													OFFSET 2.961098 0.000000 0.000000
													CHANNELS 3 Xrotation Yrotation Zrotation
													JOINT LeftHandRing4
													{
														OFFSET 4.927200 0.000000 0.000000
														CHANNELS 3 Xrotation Yrotation Zrotation
														End Site
														{
															OFFSET 0.000000 0.000000 0.000000
														}
													}
												}
											}
										}
										JOINT LeftHandPinky1
										{
											OFFSET 12.791824 -0.832031 -6.799156
											CHANNELS 3 Xrotation Yrotation Zrotation
											JOINT LeftHandPinky2
											{
												OFFSET 3.327133 0.000000 0.000000
												CHANNELS 3 Xrotation Yrotation Zrotation
												JOINT LeftHandPinky3
												{
													OFFSET 3.014900 0.000000 0.000000
													CHANNELS 3 Xrotation Yrotation Zrotation
													JOINT LeftHandPinky4
													{
														OFFSET 5.847786 0.000000 0.000000
														CHANNELS 3 Xrotation Yrotation Zrotation
														End Site
														{
															OFFSET 0.000000 0.000000 0.000000
														}
													}
												}
											}
										}
									}
								}
							}
						}
					}
					JOINT RightShoulder
					{
						OFFSET -6.292450 5.785301 -0.669000
						CHANNELS 3 Xrotation Yrotation Zrotation
						JOINT RightShoulder_split
						{
							OFFSET -6.292450 5.785301 -0.669000
							CHANNELS 3 Xrotation Yrotation Zrotation
							JOINT RightArm
							{
								OFFSET -13.907140 -6.093903 1.965100
								CHANNELS 3 Xrotation Yrotation Zrotation
								JOINT RightForeArm
								{
									OFFSET -34.140198 0.000000 0.000000
									CHANNELS 3 Xrotation Yrotation Zrotation
									JOINT RightHand
									{
										OFFSET -40.960209 0.000000 0.000000
										CHANNELS 3 Xrotation Yrotation Zrotation
										JOINT RightHandThumb1
										{
											OFFSET -10.007050 -7.170456 9.573117
											CHANNELS 3 Xrotation Yrotation Zrotation
											JOINT RightHandThumb2
											{
												OFFSET -1.835007 -1.059448 1.059443
												CHANNELS 3 Xrotation Yrotation Zrotation
												JOINT RightHandThumb3
												{
													OFFSET -2.112267 -1.219513 1.219518
													CHANNELS 3 Xrotation Yrotation Zrotation
													JOINT RightHandThumb4
													{
														OFFSET -4.843834 -2.796585 2.796590
														CHANNELS 3 Xrotation Yrotation Zrotation
														End Site
														{
															OFFSET 0.000000 0.000000 0.000000
														}
													}
												}
											}
										}
										JOINT RightHandIndex1
										{
											OFFSET -18.389870 -0.922424 4.596786
											CHANNELS 3 Xrotation Yrotation Zrotation
											JOINT RightHandIndex2
											{
												OFFSET -4.711273 0.000000 0.000000
												CHANNELS 3 Xrotation Yrotation Zrotation
												JOINT RightHandIndex3
												{
													OFFSET -2.886131 0.000000 0.000000
													CHANNELS 3 Xrotation Yrotation Zrotation
													JOINT RightHandIndex4
													{
														OFFSET -6.145920 0.000000 0.000000
														CHANNELS 3 Xrotation Yrotation Zrotation
														End Site
														{
															OFFSET 0.000000 0.000000 0.000000
														}
													}
												}
											}
										}
										JOINT RightHandMiddle1
										{
											OFFSET -18.013008 0.000000 0.000000
											CHANNELS 3 Xrotation Yrotation Zrotation
											JOINT RightHandMiddle2
											{
												OFFSET -4.946693 0.000000 0.000000
												CHANNELS 3 Xrotation Yrotation Zrotation
												JOINT RightHandMiddle3
												{
													OFFSET -3.342232 0.000000 0.000000
													CHANNELS 3 Xrotation Yrotation Zrotation
													JOINT RightHandMiddle4
													{
														OFFSET -4.461754 0.000000 0.000000
														CHANNELS 3 Xrotation Yrotation Zrotation
														End Site
														{
															OFFSET 0.000000 0.000000 0.000000
														}
													}
												}
											}
										}
										JOINT RightHandRing1
										{
											OFFSET -15.849876 -0.102936 -4.126237
											CHANNELS 3 Xrotation Yrotation Zrotation
											JOINT RightHandRing2
											{
												OFFSET -3.527054 0.000000 0.000000
												CHANNELS 3 Xrotation Yrotation Zrotation
												JOINT RightHandRing3
												{
													OFFSET -2.961098 0.000000 0.000000
													CHANNELS 3 Xrotation Yrotation Zrotation
													JOINT RightHandRing4
													{
														OFFSET -4.927200 0.000000 0.000000
														CHANNELS 3 Xrotation Yrotation Zrotation
														End Site
														{
															OFFSET 0.000000 0.000000 0.000000
														}
													}
												}
											}
										}
										JOINT RightHandPinky1
										{
											OFFSET -12.791786 -0.832077 -6.799222
											CHANNELS 3 Xrotation Yrotation Zrotation
											JOINT RightHandPinky2
											{
												OFFSET -3.327133 0.000000 0.000000
												CHANNELS 3 Xrotation Yrotation Zrotation
												JOINT RightHandPinky3
												{
													OFFSET -3.014900 0.000000 0.000000
													CHANNELS 3 Xrotation Yrotation Zrotation
													JOINT RightHandPinky4
													{
														OFFSET -5.847786 0.000000 0.000000
														CHANNELS 3 Xrotation Yrotation Zrotation
														End Site
														{
															OFFSET 0.000000 0.000000 0.000000
														}
													}
												}
											}
										}
									}
								}
							}
						}
					}
				}
			}
		}
	}
	JOINT LeftUpLeg
	{
		OFFSET 13.026900 -6.336304 -1.092800
		CHANNELS 3 Xrotation Yrotation Zrotation
		JOINT LeftLeg
		{
			OFFSET 0.524474 -46.096886 9.782700
			CHANNELS 3 Xrotation Yrotation Zrotation
			JOINT LeftFoot
			{
				OFFSET -0.524474 -53.427422 -12.948200
				CHANNELS 3 Xrotation Yrotation Zrotation
				JOINT LeftToeBase
				{
					OFFSET 0.192200 -14.009700 16.364100
					CHANNELS 3 Xrotation Yrotation Zrotation
					JOINT LeftToe_End
					{
						OFFSET -1.784700 -0.561700 9.474800
						CHANNELS 3 Xrotation Yrotation Zrotation
						End Site
						{
							OFFSET 0.000000 0.000000 0.000000
						}
					}
				}
			}
		}
	}
	JOINT RightUpLeg
	{
		OFFSET -12.883000 -6.336304 -1.092800
		CHANNELS 3 Xrotation Yrotation Zrotation
		JOINT RightLeg
		{
			OFFSET -0.524587 -46.096825 9.782800
			CHANNELS 3 Xrotation Yrotation Zrotation
			JOINT RightFoot
			{
				OFFSET 0.524587 -53.427383 -12.948300
				CHANNELS 3 Xrotation Yrotation Zrotation
				JOINT RightToeBase
				{
					OFFSET -0.192200 -14.009700 16.364100
					CHANNELS 3 Xrotation Yrotation Zrotation
					JOINT RightToe_End
					{
						OFFSET 1.784700 -0.561700 9.474800
						CHANNELS 3 Xrotation Yrotation Zrotation
						End Site
						{
							OFFSET 0.000000 0.000000 0.000000
						}
					}
				}
			}
		}
	}
}
MOTION
Frames: 4
Frame Time: 0.016667
-1.018248 91.703232 -0.318430 -4.300438 -74.744638 -2.478990 2.946854 -0.494996 -2.362274 5.893828 -0.904742 -3.151097 0.000000 0.000000 0.000000 5.893817 -0.904606 -3.151105 -2.451536 24.309792 7.456974 0.154240 27.772031 -8.534005 0.000001 -0.000001 -0.000000 0.279784 -7.010230 -19.556606 0.000000 0.000000 0.000000 -39.504055 -20.309122 -2.427281 -5.614193 -32.071570 -2.800586 4.686507 -29.138004 18.780623 18.604739 9.201144 -20.335722 9.366553 23.517105 3.907240 15.631108 30.652236 0.949980 -0.000000 0.000000 -0.000000 5.062914 7.259546 -60.393482 0.009026 -4.396056 -76.234740 -0.014954 1.943547 -28.702784 -0.000000 -0.000002 -0.000003 -0.063973 4.758035 -60.986814 -0.080418 -4.896944 -84.974383 -0.077662 1.572470 -47.862684 -0.000000 0.000001 0.000001 -0.034416 -0.057008 -61.362256 -0.169946 -1.351958 -91.625383 -0.058871 1.209375 -28.345010 0.000000 0.000000 0.000001 -4.255090 -2.157310 -63.603166 -0.059586 -0.064769 -85.011089 -0.006189 -0.027511 -25.011495 0.000002 -0.000002 0.000000 0.636234 13.855936 9.110353 0.000000 0.000000 0.000000 35.455280 67.114409 -18.850911 0.649684 83.885296 -11.766930 -31.174073 -5.150272 -0.072258 15.959768 -4.187792 29.032211 -14.791985 -41.235474 -16.515537 1.538930 -36.186499 -16.491861 -0.000001 0.000002 0.000000 5.358200 -4.863583 67.585043 0.006266 4.394828 68.693432 -0.015243 -1.944186 51.003792 -0.000000 -0.000001 -0.000000 -0.076821 -4.752198 70.834888 -0.076443 4.897905 82.216346 -0.094641 -1.559165 59.800321 -0.000001 -0.000002 0.000001 -1.164531 -6.475331 73.357482 -0.172080 1.351247 92.834367 -0.068414 -1.195415 42.966278 0.000001 0.000001 -0.000000 -5.344953 -12.802401 81.125251 -0.058409 0.065301 84.695978 -0.011910 0.037062 34.883286 -0.000000 0.000000 -0.000000 -41.714451 11.918199 50.000072 37.810503 -1.045648 -7.133175 10.551140 -1.853437 -22.334626 -0.040096 -0.002765 -0.047263 0.000000 -0.000000 -0.000000 -40.757190 0.137873 -25.737912 57.691958 9.343750 -7.058063 -14.817539 -4.533480 21.837245 -0.005276 -0.000115 -0.000153 -0.000000 -0.000000 0.000000 
-1.018180 91.702415 -0.317940 -4.300451 -74.744659 -2.479317 2.946856 -0.494965 -2.361961 5.893828 -0.904744 -3.151096 0.000000 0.000000 0.000000 5.893816 -0.904604 -3.151106 -2.481196 24.333316 7.459442 0.160612 27.801735 -8.536965 0.000000 0.000001 -0.000000 0.279786 -7.010230 -19.556606 0.000000 0.000000 0.000000 -39.570025 -20.279813 -2.378973 -5.525889 -32.234190 -2.805742 4.608297 -29.480001 18.629583 18.604732 9.201145 -20.335720 9.366553 23.517106 3.907240 15.631112 30.652236 0.949979 0.000000 -0.000000 -0.000001 5.062912 7.259545 -60.393489 0.009027 -4.396056 -76.234740 -0.014954 1.943540 -28.702784 0.000002 0.000002 -0.000002 -0.063979 4.758040 -60.986814 -0.080415 -4.896940 -84.974383 -0.077660 1.572471 -47.862684 0.000001 0.000001 -0.000002 -0.034417 -0.057007 -61.362256 -0.169942 -1.351958 -91.625383 -0.058870 1.209376 -28.345010 0.000001 0.000001 0.000001 -4.255093 -2.157306 -63.603166 -0.059589 -0.064768 -85.011089 -0.006189 -0.027520 -25.011497 -0.000000 -0.000001 -0.000003 0.636229 13.855906 9.110395 0.000000 0.000000 0.000000 35.361027 66.921586 -19.125231 1.039714 84.331116 -12.064376 -30.137093 -3.581573 -2.922852 15.959772 -4.187792 29.032207 -14.791978 -41.235474 -16.515541 1.538933 -36.186499 -16.491866 -0.000002 -0.000000 -0.000000 5.358200 -4.863583 67.585043 0.006267 4.394827 68.693439 -0.015240 -1.944179 51.003796 -0.000002 -0.000001 0.000000 -0.076816 -4.752197 70.834881 -0.076447 4.897905 82.216353 -0.094639 -1.559163 59.800321 0.000002 -0.000001 -0.000001 -1.164531 -6.475331 73.357482 -0.172080 1.351249 92.834367 -0.068413 -1.195413 42.966278 -0.000003 -0.000002 -0.000002 -5.344953 -12.802401 81.125251 -0.058410 0.065307 84.695978 -0.011903 0.037064 34.883292 -0.000001 0.000002 0.000002 -41.544588 11.756694 49.892411 37.836031 -0.842052 -7.116601 10.534431 -1.850181 -22.437532 -0.040098 -0.002724 -0.047274 -0.000000 0.000001 0.000000 -40.739623 0.166155 -25.721485 57.688044 9.311268 -7.060183 -14.818927 -4.538508 21.858125 -0.005267 -0.000088 -0.000156 0.000000 0.000001 0.000000 
-0.989727 92.003090 -0.326073 -5.292519 -75.166881 -3.473313 2.894692 -0.465719 -2.320801 5.790268 -0.823339 -3.057954 0.000000 0.000000 0.000000 5.790284 -0.823185 -3.058009 -2.569097 24.400583 7.466812 0.176399 27.894289 -8.544361 -0.000000 0.000001 0.000000 0.268778 -7.020016 -19.607414 0.000000 0.000000 0.000000 -39.486884 -20.023367 -2.512445 -5.275126 -32.657149 -2.924881 4.324743 -29.568620 18.253884 18.604730 9.201144 -20.335724 9.366553 23.517108 3.907241 15.631112 30.652240 0.949980 -0.000001 -0.000001 0.000000 5.062911 7.259546 -60.393489 0.009025 -4.396056 -76.234733 -0.014956 1.943546 -28.702787 -0.000001 -0.000005 -0.000003 -0.063978 4.758037 -60.986814 -0.080415 -4.896944 -84.974383 -0.077662 1.572467 -47.862687 0.000001 0.000002 -0.000002 -0.034416 -0.057008 -61.362256 -0.169942 -1.351957 -91.625383 -0.058872 1.209375 -28.345012 -0.000001 0.000001 0.000002 -4.255091 -2.157309 -63.603166 -0.059589 -0.064768 -85.011089 -0.006187 -0.027514 -25.011497 -0.000002 -0.000002 -0.000002 0.634737 13.830891 9.149997 0.000000 0.000000 0.000000 35.145073 66.734821 -18.516993 1.797621 83.923996 -12.613913 -28.913789 -1.718584 -3.791593 15.959770 -4.187792 29.032211 -14.791982 -41.235471 -16.515537 1.538934 -36.186499 -16.491871 -0.000000 -0.000001 -0.000001 5.358198 -4.863581 67.585043 0.006264 4.394823 68.693439 -0.015243 -1.944180 51.003789 0.000001 -0.000000 -0.000001 -0.076815 -4.752194 70.834881 -0.076446 4.897900 82.216353 -0.094638 -1.559164 59.800321 -0.000003 0.000001 0.000002 -1.164529 -6.475328 73.357475 -0.172077 1.351247 92.834367 -0.068411 -1.195415 42.966271 0.000000 0.000000 -0.000002 -5.344948 -12.802398 81.125251 -0.058410 0.065301 84.695971 -0.011906 0.037063 34.883289 -0.000001 -0.000000 0.000001 -40.763348 12.025224 49.840334 37.414629 -0.325848 -7.010005 10.587119 -1.865824 -22.643947 -0.040189 -0.002718 -0.047374 -0.000000 -0.000001 0.000000 -40.485536 0.041649 -25.541407 57.234557 9.611931 -7.006248 -14.555234 -4.425555 21.618030 -0.005263 -0.000114 -0.000152 0.000000 -0.000001 -0.000000 
-0.950407 92.366951 -0.358658 -6.717388 -75.750179 -4.899763 2.815780 -0.424306 -2.274706 5.633339 -0.706298 -2.949005 0.000000 0.000000 0.000000 5.633328 -0.706337 -2.949011 -2.701121 24.509328 7.478630 0.204684 28.042604 -8.562600 0.000000 0.000000 -0.000000 0.235413 -7.052427 -19.747772 0.000000 0.000000 0.000000 -38.990890 -19.413553 -3.073291 -4.884504 -33.341340 -3.229817 3.787406 -29.109836 17.675570 18.604733 9.201142 -20.335720 9.366547 23.517108 3.907244 15.631110 30.652240 0.949980 -0.000000 0.000000 0.000000 5.062907 7.259544 -60.393489 0.009026 -4.396060 -76.234740 -0.014952 1.943540 -28.702784 0.000002 -0.000002 -0.000001 -0.063978 4.758038 -60.986814 -0.080418 -4.896943 -84.974383 -0.077661 1.572470 -47.862684 0.000001 -0.000000 0.000001 -0.034415 -0.057011 -61.362256 -0.169940 -1.351957 -91.625383 -0.058870 1.209374 -28.345012 0.000001 -0.000001 -0.000002 -4.255093 -2.157309 -63.603166 -0.059586 -0.064770 -85.011089 -0.006189 -0.027513 -25.011497 0.000002 -0.000002 0.000003 0.630151 13.759760 9.265011 0.000000 0.000000 0.000000 34.557916 66.432059 -17.348047 2.853640 83.375375 -13.339032 -27.579609 0.446924 -4.373083 15.959775 -4.187791 29.032207 -14.791978 -41.235474 -16.515541 1.538936 -36.186499 -16.491862 0.000000 -0.000001 -0.000003 5.358200 -4.863580 67.585043 0.006266 4.394825 68.693439 -0.015238 -1.944182 51.003785 0.000001 -0.000000 -0.000000 -0.076814 -4.752195 70.834888 -0.076448 4.897900 82.216353 -0.094636 -1.559164 59.800321 -0.000001 0.000000 -0.000001 -1.164529 -6.475331 73.357482 -0.172078 1.351247 92.834367 -0.068414 -1.195414 42.966275 0.000001 -0.000000 0.000002 -5.344950 -12.802399 81.125251 -0.058410 0.065306 84.695978 -0.011906 0.037064 34.883292 -0.000000 -0.000000 0.000000 -39.786695 12.424877 49.841205 36.871110 0.296359 -6.890171 10.669578 -1.888918 -22.896044 -0.040165 -0.002748 -0.047323 0.000000 -0.000002 0.000000 -40.183512 -0.077227 -25.270378 56.696328 10.002068 -6.939774 -14.219982 -4.280937 21.298915 -0.005273 -0.000081 -0.000156 0.000000 -0.000001 -0.000000 
